# xmcd
#
# Track frame offsets: 
#        150
#        18585
#        39555
#        56325
#        73255
#        91152
#        110910
#        128727
#        145997
#        171937
#
# Disc length: 2576 seconds
#
# Revision: 2
# Processed by: cddbd v1.5.2PL0 Copyright (c) Steve Scherf et al.
# Submitted via: ExactAudioCopyFreeDBPlugin 1.0
#
DISCID=8f0a0e0a
DTITLE=松任谷由実 - 流線形'80
DYEAR=1978
DGENRE=J ポップ
TTITLE0=ロッヂで待つクリスマス
TTITLE1=埠頭を渡る風
TTITLE2=真冬のサーファー
TTITLE3=静かなまぼろし
TTITLE4=魔法のくすり
TTITLE5=キャサリン
TTITLE6=Corvett 1954
TTITLE7=入江の午後3時
TTITLE8=かんらん車
TTITLE9=12階のこいびと
EXTD=
EXTT0=
EXTT1=
EXTT2=
EXTT3=
EXTT4=
EXTT5=
EXTT6=
EXTT7=
EXTT8=
EXTT9=
PLAYORDER=
